<svg xmlns="http://www.w3.org/2000/svg" x="0px" y="0px" viewBox="0 0 864 864" enable-background="new 0 0 864 864"><style>.ls0{fill:#2b882b}</style><g><path class="ls0" d="M314.5,148.3L148.3,314.5c0,1.7,0,232.9,0,235l166.2,166.2c10.9,0,87.3,0,104.1,0c0-7.2,0-157.3,0-164.2h-68	v96.2h-7.9L216.3,521.3c0-6.1,0-164.2,0-178.7l126.3-126.3h7.9v96.2h68c0-6.9,0-157,0-164.2C392.8,148.3,332.5,148.3,314.5,148.3z"/><path class="ls0" d="M647.7,521.3L521.3,647.7h-7.9c0-5.8,0-486.3,0-499.4h-68c0,12.6,0,562.6,0,567.4c25.8,0,86.1,0,104.1,0	l166.2-166.2V466h-68V521.3z"/></g></svg>
